<?xml version="1.0" encoding="utf-8"?>
<!-- Generator: Adobe Illustrator 19.0.0, SVG Export Plug-In . SVG Version: 6.00 Build 0)  -->
<svg version="1.1" id="Layer_1" xmlns="http://www.w3.org/2000/svg" xmlns:xlink="http://www.w3.org/1999/xlink" x="0px" y="0px"
	 viewBox="0 0 96 96" style="enable-background:new 0 0 96 96;" xml:space="preserve">
<style type="text/css">
	.st0{fill:#333333;}
</style>
<g id="XMLID_6_">
	<path id="XMLID_11_" class="st0" d="M48,34c-7.7,0-14,6.3-14,14c0,7.7,6.3,14,14,14c7.7,0,14-6.3,14-14C62,40.3,55.7,34,48,34z
		 M48,20c-15.5,0-28,12.5-28,28s12.5,28,28,28s28-12.5,28-28S63.5,20,48,20z M48,70.4c-12.4,0-22.4-10-22.4-22.4s10-22.4,22.4-22.4
		s22.4,10,22.4,22.4S60.4,70.4,48,70.4z"/>
</g>
</svg>
